<svg width="30" height="30" fill="none" xmlns="http://www.w3.org/2000/svg"><g clip-path="url(#a)"><path fill-rule="evenodd" clip-rule="evenodd" d="M30 15c0 8.284-6.716 15-15 15-8.284 0-15-6.716-15-15C0 6.716 6.716 0 15 0c8.284 0 15 6.716 15 15Zm-19.955-1.374c-1.503.656-3.047 1.33-4.459 2.108-.737.54.243.921 1.162 1.28.146.056.29.113.427.169l.345.108c1.022.326 2.162.69 3.154.143 1.63-.937 3.17-2.02 4.707-3.101.503-.355 1.007-.71 1.513-1.058l.08-.052c.432-.28 1.402-.909 1.043-.042-.849.929-1.758 1.75-2.672 2.577a57.765 57.765 0 0 0-1.839 1.711c-.526.427-1.072 1.287-.483 1.885 1.356.95 2.734 1.876 4.11 2.801l1.343.905c.758.605 1.942.116 2.108-.83l.223-1.304a368.08 368.08 0 0 0 1.186-7.218c.049-.378.105-.756.16-1.134.137-.917.272-1.835.315-2.757-.11-.92-1.225-.718-1.846-.51-3.19 1.213-6.35 2.517-9.496 3.845l-1.081.474Z" fill="#000"/></g><defs><clipPath id="a"><path fill="#fff" d="M0 0h30v30H0z"/></clipPath></defs></svg>