<svg width="30" height="30" fill="none" xmlns="http://www.w3.org/2000/svg"><g clip-path="url(#a)"><path fill-rule="evenodd" clip-rule="evenodd" d="M15 0c8.284 0 15 6.716 15 15 0 8.284-6.716 15-15 15-8.284 0-15-6.716-15-15C0 6.716 6.716 0 15 0Zm.898 6.11a8.27 8.27 0 0 1 2.749.814c.89.435 1.459.847 2.212 1.596.705.707 1.097 1.243 1.512 2.075.578 1.16.907 2.54.963 4.059.021.518.006.633-.112.781-.226.288-.72.24-.89-.083-.053-.106-.068-.198-.086-.612a10.71 10.71 0 0 0-.163-1.54c-.35-1.927-1.275-3.466-2.751-4.57-1.23-.924-2.503-1.374-4.169-1.472-.563-.033-.661-.053-.789-.15-.237-.187-.249-.626-.02-.83.139-.127.237-.145.72-.13.252.009.623.038.824.062Zm-6.777.32c.103.035.263.118.355.177.564.373 2.132 2.378 2.645 3.378.294.572.391.995.3 1.309-.095.337-.252.515-.955 1.08-.282.228-.546.462-.587.524-.107.154-.193.456-.193.67.003.494.323 1.39.744 2.08.326.536.91 1.223 1.489 1.75.679.622 1.277 1.045 1.954 1.38.868.432 1.399.542 1.787.36.098-.044.202-.103.235-.13.03-.026.258-.304.507-.612.48-.604.59-.702.919-.814.418-.142.845-.104 1.275.115.326.169 1.037.61 1.497.93.605.423 1.897 1.477 2.072 1.687.309.38.362.865.155 1.4-.22.566-1.074 1.626-1.67 2.079-.54.408-.922.565-1.426.589-.415.02-.587-.015-1.118-.234-4.162-1.714-7.486-4.272-10.125-7.786-1.378-1.835-2.428-3.739-3.146-5.714-.418-1.151-.438-1.652-.094-2.24.148-.25.78-.865 1.239-1.208.765-.569 1.118-.78 1.4-.838.192-.042.527-.01.74.068Zm6.982 1.826c1.8.264 3.193 1.099 4.106 2.455.513.763.834 1.66.943 2.623.039.352.039.994-.003 1.1a.673.673 0 0 1-.27.294c-.115.06-.361.053-.498-.018-.228-.115-.296-.299-.296-.796 0-.767-.199-1.575-.543-2.203a4.503 4.503 0 0 0-1.654-1.72c-.596-.355-1.477-.619-2.28-.684-.29-.023-.45-.083-.56-.21a.539.539 0 0 1-.045-.669c.154-.24.391-.278 1.1-.172Zm.631 2.236c.585.124 1.032.346 1.415.704.492.465.762 1.027.88 1.835.08.527.048.735-.139.906-.175.16-.498.166-.694.015-.142-.106-.187-.219-.22-.524-.038-.405-.109-.69-.23-.953-.261-.56-.721-.85-1.498-.944-.365-.045-.474-.086-.593-.225a.551.551 0 0 1 .166-.83c.113-.056.16-.062.41-.047.154.01.382.036.503.063Z" fill="#000"/></g><defs><clipPath id="a"><path fill="#fff" d="M0 0h30v30H0z"/></clipPath></defs></svg>