<svg width="30" height="30" viewBox="0 0 30 30" fill="none" xmlns="http://www.w3.org/2000/svg">
<g clip-path="url(#clip0_1341_18)">
<path fill-rule="evenodd" clip-rule="evenodd" d="M15 0C23.2843 0 30 6.71573 30 15C30 23.2843 23.2843 30 15 30C6.71573 30 0 23.2843 0 15C0 6.71573 6.71573 0 15 0ZM15.8984 6.11009C16.9183 6.23738 17.7425 6.48307 18.6469 6.92417C19.5363 7.35937 20.1056 7.77085 20.8587 8.51983C21.5643 9.22737 21.9557 9.76325 22.3708 10.5951C22.9489 11.7556 23.2781 13.1352 23.3344 14.6539C23.3552 15.1719 23.3403 15.2874 23.2217 15.4354C22.9964 15.7226 22.5012 15.6752 22.3322 15.3525C22.2788 15.2459 22.264 15.1542 22.2462 14.7397C22.2166 14.1032 22.1722 13.6917 22.0832 13.2003C21.7333 11.2731 20.8083 9.73363 19.3317 8.62937C18.1013 7.70574 16.8293 7.25573 15.1631 7.15805C14.5998 7.12549 14.5019 7.1048 14.3744 7.00709C14.1372 6.82058 14.1254 6.38246 14.3536 6.17819C14.493 6.05087 14.5908 6.0331 15.0741 6.0479C15.3261 6.05678 15.6968 6.0864 15.8984 6.11009ZM9.12059 6.42982C9.22438 6.46533 9.38449 6.54821 9.47641 6.60743C10.0397 6.98046 11.6081 8.98462 12.1211 9.98527C12.4146 10.5566 12.5124 10.98 12.4206 11.2938C12.3256 11.6313 12.1686 11.8089 11.4659 12.3743C11.1842 12.6023 10.9203 12.8362 10.8788 12.8983C10.772 13.0523 10.686 13.3542 10.686 13.5674C10.689 14.0618 11.0093 14.9588 11.4303 15.6486C11.7564 16.1844 12.3404 16.8712 12.9186 17.3982C13.5976 18.0199 14.1965 18.4432 14.8725 18.7777C15.7412 19.2099 16.272 19.3195 16.6604 19.1389C16.7582 19.0945 16.862 19.0353 16.8946 19.0087C16.9242 18.982 17.1525 18.7037 17.4016 18.3959C17.8819 17.7919 17.9916 17.6942 18.3207 17.5818C18.7388 17.4397 19.1657 17.4781 19.5956 17.6972C19.9218 17.8659 20.6334 18.307 21.0929 18.6268C21.6977 19.0501 22.9904 20.104 23.1654 20.3142C23.4737 20.6932 23.5271 21.1786 23.3195 21.7145C23.1001 22.2799 22.2462 23.3398 21.6503 23.7927C21.1107 24.2013 20.7282 24.3581 20.2242 24.3818C19.8091 24.4025 19.6372 24.367 19.1064 24.1479C14.9437 22.4339 11.62 19.8761 8.98122 16.362C7.60256 14.5266 6.55297 12.623 5.83543 10.6484C5.41741 9.49684 5.39668 8.99648 5.74057 8.40736C5.88884 8.1587 6.52036 7.54292 6.97991 7.19953C7.74488 6.63111 8.09769 6.42091 8.37936 6.36172C8.57207 6.32026 8.90709 6.35284 9.12059 6.42982ZM16.1029 8.25637C17.9027 8.51983 19.2962 9.35471 20.2094 10.7106C20.7223 11.4744 21.0425 12.3714 21.1522 13.3335C21.1907 13.6858 21.1907 14.3282 21.1492 14.4348C21.1107 14.5354 20.9862 14.6716 20.8794 14.7278C20.7638 14.7871 20.5177 14.7812 20.3813 14.7101C20.153 14.5947 20.0848 14.4111 20.0848 13.9138C20.0848 13.147 19.8862 12.3388 19.5423 11.7112C19.1509 10.9948 18.5816 10.4027 17.8879 9.99119C17.2919 9.63594 16.4113 9.37248 15.6078 9.30736C15.3172 9.28365 15.1571 9.22443 15.0474 9.09714C14.8785 8.9047 14.8606 8.64419 15.003 8.4281C15.1571 8.1883 15.3943 8.14978 16.1029 8.25637ZM16.7345 10.4915C17.3186 10.6158 17.7663 10.8379 18.1487 11.1961C18.6409 11.6608 18.9107 12.2233 19.0293 13.0315C19.1094 13.5585 19.0768 13.7657 18.89 13.9374C18.715 14.0973 18.3919 14.1032 18.1962 13.9522C18.0539 13.8456 18.0094 13.7332 17.9768 13.4283C17.9382 13.0227 17.8671 12.7385 17.7456 12.475C17.4846 11.9155 17.025 11.6253 16.2483 11.5306C15.8835 11.4862 15.7738 11.4448 15.6553 11.3056C15.4388 11.0481 15.5218 10.6306 15.8213 10.4767C15.934 10.4205 15.9814 10.4145 16.2304 10.4293C16.3846 10.4382 16.6129 10.4648 16.7345 10.4915Z" fill="black"/>
</g>
<defs>
<clipPath id="clip0_1341_18">
<rect width="30" height="30" fill="white"/>
</clipPath>
</defs>
</svg>
